<svg id="Layer_1" data-name="Layer 1" xmlns="http://www.w3.org/2000/svg" viewBox="0 0 32 32"><defs><style>.cls-1{fill:#f1bf2e;}.cls-2{fill:#231f20;}.cls-3{fill:#fff;}</style></defs><path class="cls-1" d="M29.3,0H2.7A2.7,2.7,0,0,0,0,2.7V29.3A2.7,2.7,0,0,0,2.7,32H29.3A2.7,2.7,0,0,0,32,29.3V2.7A2.7,2.7,0,0,0,29.3,0ZM18.6,23a.61.61,0,0,0-.14-.85c-.46-.39-.91-.8-1.36-1.2l.12-.28c.7,0,1.39,0,2.08,0a.87.87,0,0,0,.93-.55c.43-.82.91-1.61,1.46-2.57.18,1.15.34,2.11.5,3.13H25c-.78.58-1.37,1.06-2,1.46a.87.87,0,0,0-.42,1c.13.77.23,1.55.37,2.52l-2.42-1.91L17.4,25.69C17.84,24.71,18.2,23.86,18.6,23Z"/><path class="cls-2" d="M23.73,22.41c1-.67,2-1.44,3-2.17,0,0,0-.11-.05-.16-1.13,0-2.26,0-3.39,0-.47,0-.64-.15-.7-.64-.14-1.19-.36-2.38-.57-3.71-.2.31-.31.47-.41.64-.63,1.1-1.25,2.2-1.9,3.28a.7.7,0,0,1-.5.32c-.11,0-.27-.25-.33-.42a2.92,2.92,0,0,1-.17-.82c0-.94,0-1.88,0-2.83a2,2,0,0,0-1.19-2.16c.31-.1.54-.16.77-.25a3.55,3.55,0,0,0,2.05-3.92,2.71,2.71,0,0,0-2.74-2.76c-2.56-.12-5.13,0-7.76,0q-1.31,6.37-2.65,13h3.37c.33-1.56.65-3.12,1-4.69.92,0,1.79,0,2.65,0a1.16,1.16,0,0,1,1.17,1.15,7.87,7.87,0,0,1,0,1.75A3.17,3.17,0,0,0,16.48,21c.56.49,1.31,1.06,1.41,1.7s-.5,1.38-.8,2.07-.68,1.54-1,2.31A33.22,33.22,0,0,0,19.82,25,.83.83,0,0,1,21,25c.85.72,1.74,1.39,2.78,2.21-.19-1.32-.35-2.44-.52-3.56A1.08,1.08,0,0,1,23.73,22.41ZM16.12,12.29a10.64,10.64,0,0,1-2.19.23c-.54,0-1.08,0-1.75,0,.2-1,.36-1.93.56-2.82a.49.49,0,0,1,.34-.29c.94,0,1.88,0,2.81.06A1.13,1.13,0,0,1,17,10.57C17.11,11.41,16.83,12.1,16.12,12.29Zm6.41,10.92c.13.77.23,1.55.37,2.52l-2.42-1.91L17.4,25.69c.44-1,.8-1.83,1.2-2.65a.61.61,0,0,0-.14-.85c-.46-.39-.91-.8-1.36-1.2l.12-.28c.7,0,1.39,0,2.08,0a.87.87,0,0,0,.93-.55c.43-.82.91-1.61,1.46-2.57.18,1.15.34,2.11.5,3.13H25c-.78.58-1.37,1.06-2,1.46A.87.87,0,0,0,22.53,23.21Z"/><path class="cls-3" d="M22.53,23.21c.13.77.23,1.55.37,2.52l-2.42-1.91L17.4,25.69c.44-1,.8-1.83,1.2-2.65a.61.61,0,0,0-.14-.85c-.46-.39-.91-.8-1.36-1.2l.12-.28c.7,0,1.39,0,2.08,0a.87.87,0,0,0,.93-.55c.43-.82.91-1.61,1.46-2.57.18,1.15.34,2.11.5,3.13H25c-.78.58-1.37,1.06-2,1.46A.87.87,0,0,0,22.53,23.21Z"/></svg>